<?xml version="1.0" standalone="no"?>
<!DOCTYPE svg PUBLIC "-//W3C//DTD SVG 20010904//EN"
 "http://www.w3.org/TR/2001/REC-SVG-20010904/DTD/svg10.dtd">
<svg version="1.0" xmlns="http://www.w3.org/2000/svg"
 width="869.000000pt" height="871.000000pt" viewBox="0 0 869.000000 871.000000"
 preserveAspectRatio="xMidYMid meet">

<g transform="translate(0.000000,871.000000) scale(0.100000,-0.100000)"
fill="#000000" stroke="none">
<path d="M4110 7964 c-89 -4 -259 -22 -315 -34 -22 -5 -67 -14 -100 -20 -156
-29 -313 -74 -500 -140 -94 -34 -352 -161 -445 -220 -245 -154 -384 -262 -558
-433 -227 -224 -412 -477 -551 -756 -42 -82 -127 -289 -151 -366 -7 -22 -16
-49 -20 -60 -17 -45 -55 -195 -70 -275 -6 -36 -15 -85 -20 -110 -13 -67 -32
-290 -28 -330 l3 -35 85 0 84 0 12 45 c6 25 19 81 29 125 91 417 369 910 695
1235 231 230 504 428 765 554 142 69 158 75 290 121 241 85 367 113 680 155
99 13 453 13 543 0 37 -5 108 -14 157 -21 321 -40 727 -186 1018 -365 226
-140 370 -255 562 -449 292 -296 513 -655 635 -1030 12 -38 26 -79 31 -90 8
-20 55 -221 61 -260 3 -18 12 -20 91 -23 68 -2 89 0 93 11 10 26 -30 378 -56
487 -31 135 -43 183 -62 245 -11 39 -27 84 -34 102 -8 17 -14 36 -14 42 0 6
-9 30 -19 54 -10 23 -25 58 -32 77 -24 61 -158 322 -201 390 -321 511 -778
899 -1353 1151 -196 86 -520 171 -795 208 -81 11 -389 20 -510 15z"/>
<path d="M1331 4981 c-14 -88 -15 -572 -1 -695 17 -145 40 -317 51 -371 5 -27
14 -75 20 -105 30 -156 128 -521 160 -595 4 -11 17 -47 28 -80 35 -111 106
-286 161 -398 21 -44 33 -36 20 14 -5 19 -14 72 -20 119 -6 47 -16 108 -20
135 -5 28 -16 97 -25 155 -8 58 -20 132 -25 165 -5 33 -16 105 -25 160 -18
116 -32 208 -45 285 -5 30 -14 87 -19 125 -16 99 -50 311 -62 370 -33 180 -46
549 -26 718 l9 67 -85 0 -84 0 -12 -69z"/>
<path d="M7038 5039 c-2 -5 0 -45 4 -87 19 -217 4 -479 -41 -712 -10 -55 -46
-269 -61 -365 -6 -38 -15 -95 -20 -125 -5 -30 -16 -102 -25 -160 -9 -58 -20
-130 -25 -160 -5 -30 -13 -86 -19 -125 -25 -164 -48 -312 -72 -451 -12 -73 -8
-118 6 -79 5 11 17 40 28 64 10 25 35 86 54 135 19 50 41 105 48 121 17 39 76
215 109 330 14 50 30 104 35 120 11 36 54 218 69 295 6 30 16 78 22 105 9 46
19 116 51 365 13 104 18 680 5 718 -7 20 -13 22 -86 22 -46 0 -80 -4 -82 -11z"/>
<path d="M2385 4814 c-55 -13 -116 -28 -135 -34 -19 -5 -64 -16 -100 -25 -36
-10 -68 -19 -71 -21 -8 -5 23 -145 82 -369 18 -67 28 -106 53 -210 14 -55 32
-129 41 -165 9 -36 25 -101 36 -145 10 -44 23 -96 29 -115 5 -19 21 -84 36
-145 14 -60 30 -123 35 -140 5 -16 77 -304 160 -640 83 -335 155 -623 160
-640 16 -54 71 -279 76 -313 3 -17 10 -32 15 -32 6 0 81 23 167 51 86 28 185
61 221 72 129 42 199 103 235 206 21 60 19 110 -10 242 -14 62 -23 119 -21
125 2 6 17 10 33 8 15 -2 93 -8 173 -14 80 -5 190 -14 245 -19 55 -6 145 -15
200 -20 129 -13 302 -13 435 0 247 25 650 52 658 44 3 -3 -5 -56 -18 -118 -35
-163 -35 -180 -10 -250 48 -130 82 -153 381 -251 127 -42 234 -76 238 -76 5 0
11 10 14 22 28 117 68 279 76 303 5 17 16 59 25 95 8 36 23 94 31 130 9 36 20
81 25 100 5 19 20 80 33 135 14 55 44 174 66 265 23 91 45 179 50 195 5 17 28
104 50 195 22 91 52 212 67 270 14 58 30 123 35 145 17 69 26 108 47 190 12
44 46 184 77 310 31 127 61 244 66 260 32 110 69 289 62 296 -5 5 -92 30 -193
56 -151 38 -201 47 -275 48 -83 0 -96 -3 -160 -34 -130 -64 -206 -159 -240
-301 -25 -104 -24 -102 -35 -95 -5 3 -10 24 -10 45 0 43 -6 47 -80 52 -34 3
-35 5 -38 47 l-3 44 -63 -6 c-97 -9 -387 -84 -491 -126 -11 -5 -49 -20 -85
-34 -124 -48 -226 -94 -334 -150 -106 -55 -113 -57 -187 -57 -68 0 -84 4 -136
33 -61 34 -186 93 -313 147 -41 18 -84 36 -95 41 -28 12 -203 70 -245 81 -19
5 -51 13 -70 19 -71 19 -232 49 -265 49 -33 0 -34 -2 -37 -42 l-3 -43 -52 -3
c-52 -3 -52 -3 -58 -40 -4 -20 -8 -41 -9 -47 -1 -5 -10 22 -20 60 -24 102 -67
183 -128 242 -64 62 -108 87 -187 108 -79 20 -137 18 -256 -11z m890 -274
c231 -51 418 -111 507 -160 10 -6 22 -10 28 -10 12 0 235 -108 305 -148 l50
-29 3 -811 c1 -579 -1 -812 -9 -812 -6 0 -64 27 -128 59 -65 33 -147 72 -182
86 -35 15 -77 33 -94 40 -77 33 -194 73 -275 94 -166 44 -174 47 -182 77 -40
168 -41 191 -9 181 9 -3 52 -15 96 -27 118 -32 277 -86 358 -124 40 -18 88
-38 107 -46 19 -7 72 -33 117 -57 87 -46 113 -52 113 -28 0 8 -4 15 -9 15 -4
0 -74 32 -154 70 -80 39 -152 70 -159 70 -8 0 -18 4 -24 9 -5 5 -29 16 -54 24
-25 9 -79 28 -120 43 -63 22 -197 60 -287 81 -25 6 -47 64 -41 111 3 24 7 27
33 24 62 -7 345 -93 426 -130 24 -11 60 -27 80 -35 19 -8 95 -43 167 -77 73
-35 135 -60 139 -57 14 14 -27 42 -146 99 -235 113 -475 196 -662 230 l-56 10
-11 47 c-6 25 -18 82 -28 126 -9 44 -21 94 -27 110 -11 31 -23 924 -13 951 7
19 35 18 141 -6z m2113 -467 l-3 -488 -28 -125 c-36 -161 -36 -162 -52 -156
-34 13 -308 -59 -422 -110 -17 -8 -36 -14 -42 -14 -6 0 -19 -4 -29 -9 -9 -5
-29 -14 -44 -20 -16 -6 -38 -15 -50 -20 -13 -5 -76 -35 -141 -66 -107 -52
-140 -76 -124 -91 2 -3 54 20 115 50 61 31 113 56 117 56 7 0 30 9 125 52 30
14 73 31 95 38 22 7 63 21 90 30 79 28 156 50 173 50 9 0 32 5 51 11 20 6 48
14 63 19 15 4 29 6 31 4 2 -2 -4 -34 -13 -70 l-16 -67 -89 -24 c-50 -13 -106
-28 -125 -33 -37 -10 -251 -84 -285 -99 -224 -99 -335 -155 -335 -168 0 -20
15 -16 88 22 143 73 383 174 467 195 17 4 78 22 136 39 58 17 112 31 119 31
13 0 12 -20 -10 -125 -16 -81 -23 -92 -67 -100 -161 -29 -413 -121 -660 -241
-83 -41 -154 -74 -157 -74 -3 0 -5 368 -4 817 l3 817 135 67 c159 80 439 194
536 218 22 5 75 19 119 29 44 11 98 25 120 30 22 5 57 10 78 11 l37 1 -2 -487z
m-2289 372 c3 -11 4 -146 1 -300 l-5 -280 -22 90 c-12 50 -29 124 -37 165 -17
82 -30 308 -20 335 10 24 75 17 83 -10z m2406 -150 c0 -101 -5 -186 -12 -210
-6 -22 -17 -67 -24 -100 -7 -33 -17 -82 -24 -109 -10 -42 -13 -46 -18 -25 -9
33 -9 604 0 613 4 4 23 6 43 4 l35 -3 0 -170z m-1180 -925 l0 -815 -60 0 -60
0 -3 818 -2 818 62 -3 63 -3 0 -815z m-880 -542 c181 -54 328 -107 333 -119 2
-5 13 -9 25 -9 16 0 18 -3 9 -12 -8 -8 -18 -9 -34 -1 -24 11 -101 33 -183 52
-27 7 -66 16 -85 21 -19 5 -64 14 -100 21 -76 14 -90 23 -90 56 0 29 0 29 125
-9z m1771 16 c-3 -9 -6 -22 -6 -29 0 -7 -15 -16 -32 -20 -74 -14 -350 -80
-409 -98 -28 -9 -52 -11 -60 -6 -11 7 -11 9 1 9 8 0 35 10 60 22 59 28 102 43
245 86 39 12 90 28 115 36 63 20 94 20 86 0z m-1746 -104 c19 -5 64 -15 100
-23 191 -44 385 -106 372 -119 -6 -6 -25 -5 -48 1 -22 5 -75 15 -119 21 -44 7
-102 15 -130 20 -27 5 -103 14 -168 21 -111 11 -119 13 -128 36 -5 13 -9 35
-9 47 0 25 7 25 130 -4z m1722 -11 c-4 -46 -22 -57 -100 -64 -37 -3 -130 -15
-207 -26 -134 -20 -177 -27 -272 -44 -69 -12 -50 9 30 35 39 12 81 26 92 30
11 5 31 11 45 14 14 3 70 17 125 31 55 15 120 31 145 36 25 5 63 13 85 18 55
12 60 9 57 -30z"/>
<path d="M3220 4297 c0 -8 36 -21 98 -36 203 -48 454 -143 665 -252 69 -36
107 -44 92 -18 -17 26 -384 187 -549 240 -68 22 -282 79 -296 79 -6 0 -10 -6
-10 -13z"/>
<path d="M3220 4130 c0 -13 27 -23 120 -45 41 -9 89 -21 105 -26 118 -37 194
-62 220 -74 17 -7 55 -23 85 -35 30 -12 114 -50 186 -86 72 -35 134 -64 137
-64 4 0 7 6 7 13 0 12 -17 23 -130 82 -50 26 -185 85 -240 105 -19 7 -49 19
-67 26 -17 8 -37 14 -45 14 -8 0 -18 4 -23 8 -6 5 -30 14 -55 21 -25 8 -56 17
-70 22 -47 16 -188 49 -209 49 -12 0 -21 -5 -21 -10z"/>
<path d="M3220 3957 c0 -8 20 -18 53 -24 65 -12 185 -43 212 -54 11 -4 56 -20
100 -35 44 -14 100 -35 125 -46 25 -11 59 -26 75 -33 17 -8 83 -39 149 -69 65
-31 125 -56 132 -56 27 0 14 20 -23 37 -21 10 -45 22 -53 28 -24 17 -229 111
-295 135 -72 26 -226 77 -275 90 -19 5 -59 16 -89 25 -68 19 -111 19 -111 2z"/>
<path d="M3220 3796 c0 -10 14 -18 38 -22 20 -3 62 -13 92 -21 30 -8 69 -18
85 -23 63 -17 245 -80 296 -104 30 -13 77 -34 104 -46 28 -12 89 -41 138 -66
78 -40 118 -49 102 -24 -19 31 -457 219 -600 258 -22 5 -60 16 -85 22 -25 7
-56 16 -70 20 -14 5 -42 11 -62 15 -30 5 -38 3 -38 -9z"/>
<path d="M3222 3628 c3 -7 29 -18 59 -25 86 -21 133 -34 151 -44 10 -5 24 -9
33 -9 20 0 160 -46 212 -71 24 -10 45 -19 47 -19 6 0 116 -50 233 -106 106
-50 118 -54 118 -36 0 7 -25 26 -55 42 -68 36 -247 120 -256 120 -3 0 -20 6
-37 14 -100 44 -192 74 -376 122 -104 27 -135 30 -129 12z"/>
<path d="M3220 3463 c0 -5 28 -17 63 -26 273 -69 380 -108 656 -238 128 -61
145 -67 139 -48 -8 25 -281 153 -468 219 -188 67 -390 115 -390 93z"/>
<path d="M5245 4300 c-16 -5 -68 -19 -115 -31 -85 -21 -157 -43 -195 -58 -11
-5 -69 -28 -130 -51 -129 -51 -351 -155 -359 -169 -16 -25 21 -19 91 17 83 42
191 92 198 92 2 0 35 14 71 31 99 45 433 149 479 149 8 0 15 7 15 15 0 16 -10
17 -55 5z"/>
<path d="M5265 4140 c-11 -4 -45 -13 -75 -20 -113 -25 -171 -43 -365 -116
-138 -51 -387 -172 -380 -184 10 -16 27 -12 99 26 38 19 89 43 115 54 25 10
82 34 125 54 43 20 109 46 145 57 36 11 75 24 86 29 32 13 213 60 233 60 27 0
59 26 47 38 -5 5 -19 6 -30 2z"/>
<path d="M5170 3950 c-36 -10 -90 -25 -120 -34 -30 -8 -109 -36 -175 -61 -66
-26 -138 -53 -160 -62 -85 -31 -265 -126 -265 -139 0 -21 8 -18 101 29 111 56
356 159 444 186 39 12 84 26 100 31 28 8 115 30 178 44 15 4 27 11 27 16 0 15
-57 10 -130 -10z"/>
<path d="M5220 3795 c-141 -37 -339 -102 -460 -152 -156 -64 -310 -142 -310
-158 0 -8 2 -15 4 -15 3 0 53 24 113 53 59 28 126 59 148 69 22 9 72 30 110
46 82 36 239 86 419 134 27 7 51 19 54 26 5 15 -8 14 -78 -3z"/>
<path d="M5175 3619 c-142 -38 -213 -60 -260 -79 -11 -5 -63 -25 -115 -45
-159 -63 -311 -135 -339 -161 -36 -33 7 -24 92 18 51 26 110 54 132 63 22 10
69 31 105 47 65 30 109 46 250 88 41 12 86 26 100 30 14 5 50 14 80 21 78 17
80 17 80 29 0 15 -45 11 -125 -11z"/>
<path d="M5230 3463 c-76 -14 -355 -102 -435 -138 -16 -7 -53 -23 -81 -34
-107 -41 -264 -123 -264 -137 0 -20 11 -18 71 14 30 16 63 33 74 39 57 30 304
133 319 133 8 0 18 5 21 10 3 6 15 10 26 10 10 0 27 4 37 10 9 5 53 19 97 30
44 12 108 28 143 37 86 23 81 42 -8 26z"/>
<path d="M1921 4532 c-19 -31 -74 -125 -122 -209 -49 -83 -94 -161 -100 -171
-10 -16 -10 -36 0 -94 23 -139 48 -296 72 -453 5 -38 14 -92 19 -120 5 -27 16
-97 25 -155 25 -166 35 -231 45 -290 5 -30 13 -86 19 -125 17 -115 41 -266 51
-325 5 -30 14 -89 20 -130 23 -148 25 -153 50 -170 81 -58 633 -401 637 -397
2 3 -1 25 -8 48 -6 24 -16 60 -20 79 -12 53 -25 104 -54 220 -15 58 -30 121
-34 140 -10 42 -47 190 -62 245 -23 86 -30 114 -60 235 -17 69 -34 141 -39
160 -5 19 -16 64 -25 100 -9 36 -21 83 -26 105 -5 22 -14 56 -19 75 -4 19 -20
82 -35 140 -15 58 -31 121 -35 140 -4 19 -21 87 -38 150 -16 63 -32 126 -35
140 -9 42 -66 272 -78 315 -21 79 -30 111 -49 190 -39 161 -53 215 -59 215 -3
0 -21 -26 -40 -58z"/>
<path d="M6567 4580 c-2 -8 -9 -31 -15 -50 -6 -19 -17 -64 -26 -100 -34 -142
-50 -207 -196 -785 -83 -330 -155 -618 -160 -640 -4 -22 -16 -67 -25 -100 -9
-33 -20 -78 -25 -100 -10 -50 -87 -360 -99 -400 -5 -16 -21 -79 -36 -140 -24
-102 -34 -140 -56 -220 -21 -78 -36 -155 -30 -155 4 0 27 13 52 29 71 46 171
109 379 241 107 67 203 130 213 140 11 10 22 42 28 78 5 34 13 88 19 120 5 31
14 86 20 122 5 36 17 110 26 165 8 55 20 129 25 165 14 94 23 154 54 345 34
212 42 263 54 345 8 58 24 158 52 335 5 33 12 83 16 112 l6 52 -122 209 c-142
244 -148 253 -154 232z"/>
<path d="M4527 1693 l-27 -4 2 -332 3 -332 45 0 45 0 0 335 c0 328 0 335 -20
336 -11 1 -32 -1 -48 -3z"/>
<path d="M5510 1691 l-24 -7 3 -122 c1 -67 1 -122 -2 -122 -2 0 -26 12 -51 26
-59 33 -112 29 -165 -14 -107 -86 -130 -235 -53 -347 58 -84 130 -105 217 -64
25 12 45 23 45 25 0 2 -26 1 -59 -2 -57 -6 -59 -6 -86 28 -63 79 -78 206 -35
293 45 89 106 98 161 22 l30 -42 -1 -145 c-2 -221 -6 -200 39 -200 21 0 44 6
50 14 8 9 11 107 9 337 l-3 324 -25 2 c-14 1 -36 -2 -50 -6z"/>
<path d="M2170 1355 l0 -336 58 3 57 3 5 159 5 159 133 -161 133 -162 81 0 81
0 -49 53 c-45 47 -250 293 -282 337 -12 16 -5 27 60 100 40 45 81 93 92 107
10 13 35 35 54 48 l37 25 -63 0 c-60 0 -62 -1 -57 -23 6 -22 -30 -79 -93 -147
-13 -14 -44 -51 -69 -82 -25 -32 -51 -58 -57 -58 -8 0 -11 48 -11 152 l0 153
-57 3 -58 3 0 -336z"/>
<path d="M6010 1474 l-31 -27 -43 22 c-59 29 -72 27 -48 -6 27 -39 34 -67 33
-129 0 -51 -22 -111 -45 -126 -6 -5 -3 -8 9 -8 34 0 104 52 124 93 18 37 17
68 -4 120 -9 21 -5 21 39 1 19 -9 41 -14 49 -11 22 8 27 45 9 66 -29 33 -56
34 -92 5z"/>
<path d="M2975 1475 c-16 -9 -47 -29 -67 -46 -20 -16 -39 -29 -42 -29 -3 0 -6
18 -6 40 0 40 0 40 -37 40 -21 0 -42 -4 -48 -8 -6 -4 -9 -89 -7 -229 l3 -223
45 0 44 0 0 173 c0 193 0 192 77 231 41 21 66 20 85 -1 26 -30 31 -63 33 -213
3 -210 -2 -190 50 -190 57 0 58 6 53 193 -4 151 -19 209 -65 250 -29 26 -82
31 -118 12z"/>
<path d="M4944 1479 c-3 -5 4 -18 15 -30 11 -12 23 -42 27 -65 3 -24 9 -44 13
-45 33 -5 104 -3 107 3 10 16 -36 86 -73 110 -44 29 -81 40 -89 27z"/>
<path d="M5785 1474 c-106 -55 -125 -156 -43 -230 27 -25 83 -55 90 -48 3 2
-6 26 -19 52 -21 39 -24 57 -20 109 3 41 12 71 25 91 31 42 18 53 -33 26z"/>
<path d="M6400 1483 c0 -3 9 -18 20 -33 11 -15 23 -45 28 -66 8 -39 8 -39 60
-42 42 -2 52 0 52 13 0 30 -29 71 -67 97 -34 22 -93 42 -93 31z"/>
<path d="M3335 1442 c-89 -68 -126 -178 -89 -268 27 -67 126 -154 174 -154 18
0 17 4 -13 33 -86 87 -89 283 -6 390 30 37 30 37 7 37 -13 0 -45 -17 -73 -38z"/>
<path d="M3518 1460 c59 -55 89 -178 68 -275 -16 -74 -37 -117 -72 -144 l-27
-21 25 0 c38 0 111 53 146 105 80 121 38 270 -97 339 -16 9 -38 16 -47 16 -15
0 -15 -3 4 -20z"/>
<path d="M3760 1476 c0 -2 16 -39 35 -82 20 -44 39 -88 44 -99 5 -11 18 -40
29 -65 11 -25 34 -79 51 -120 17 -41 35 -81 40 -89 19 -29 39 5 111 187 18 46
36 80 41 75 4 -4 29 -62 55 -128 49 -125 67 -156 83 -140 5 6 37 80 71 165 34
85 68 169 75 185 21 48 45 107 45 111 0 11 -51 2 -54 -8 -24 -93 -99 -288
-110 -288 -6 0 -38 68 -71 150 l-60 150 -52 0 c-29 0 -53 -4 -53 -9 0 -5 9
-30 20 -56 22 -50 25 -95 11 -123 -5 -9 -19 -43 -32 -75 -26 -69 -32 -66 -74
38 -16 39 -41 98 -57 133 -15 34 -28 69 -28 77 0 12 -14 15 -60 15 -33 0 -60
-2 -60 -4z"/>
<path d="M4812 1465 c-81 -44 -132 -133 -132 -229 0 -55 4 -70 33 -112 48 -72
106 -107 177 -107 41 0 68 6 98 23 51 29 47 38 -8 16 -83 -33 -130 -13 -170
71 -18 38 -23 66 -24 133 -1 99 12 144 55 188 26 26 28 32 13 31 -11 -1 -29
-7 -42 -14z"/>
<path d="M6255 1454 c-79 -54 -118 -128 -117 -224 2 -110 99 -210 206 -213 49
-1 116 19 116 35 0 5 8 8 18 9 9 0 12 3 5 5 -6 3 -28 -2 -48 -10 -82 -35 -135
-5 -173 97 -37 99 -22 230 33 289 14 15 25 30 25 33 0 12 -30 3 -65 -21z"/>
<path d="M5695 1146 c-22 -22 -23 -29 -14 -53 6 -15 22 -41 37 -57 17 -18 23
-30 15 -33 -29 -11 -63 -46 -63 -67 0 -43 63 -89 135 -100 22 -3 33 -3 25 0
-26 12 -69 65 -75 95 -15 65 11 80 124 74 113 -7 140 -64 68 -142 -16 -18 -17
-23 -5 -23 21 0 77 40 101 71 10 15 19 42 19 63 0 83 -68 125 -221 135 l-96 6
0 28 c1 34 -18 35 -50 3z"/>
</g>
</svg>
